Coordinates
version=1
nRows=17
nColumns=23
inDegrees=yes

Units are S.I. units (second, meters, Newtons, ...)
If the header above contains a line with 'inDegrees', this indicates whether rotational values are in degrees (yes) or radians (no).

endheader
time	pelvis_tilt	pelvis_list	pelvis_rotation	pelvis_tx	pelvis_ty	pelvis_tz	hip_flexion_r	hip_adduction_r	hip_rotation_r	knee_angle_r	knee_angle_r_beta	ankle_angle_r	subtalar_angle_r	mtp_angle_r	hip_flexion_l	hip_adduction_l	hip_rotation_l	knee_angle_l	knee_angle_l_beta	ankle_angle_l	subtalar_angle_l	mtp_angle_l
     15.00000000	    -12.32267005	     12.48758511	      4.35659538	      2.11720141	      0.95895202	      1.02375471	     39.18693686	     -7.70753510	     11.72879292	    106.30759253	      1.85541751	      2.33881172	    -20.32322033	      0.00000000	     23.96974946	     15.34608369	     -1.37476682	     40.13282027	      0.70044985	     24.21530516	      4.43135756	      0.00000000
     15.00666667	    -12.62305552	     12.10889278	      4.40448049	      2.11687443	      0.96155081	      1.02404205	     41.00463588	     -7.18745106	     11.67795081	    105.84232014	      1.84729697	      3.09385138	    -20.63752029	      0.00000000	     22.54350641	     14.99699806	     -0.84629781	     38.87686430	      0.67852928	     24.30845093	      4.84133478	      0.00000000
     15.01333333	    -12.88733957	     11.74917008	      4.38483421	      2.11690033	      0.96451433	      1.02443839	     42.68641525	     -6.73534428	     11.55225855	    105.11302769	      1.83456842	      3.86790530	    -21.01009686	      0.00000000	     21.01525062	     14.64325984	     -0.36004979	     37.47453888	      0.65405409	     24.07491285	      5.23826270	      0.00000000
     15.02000000	    -13.20742346	     11.33601373	      4.36683976	      2.11702998	      0.96769001	      1.02482229	     44.33153413	     -6.25997767	     11.33910691	    104.14202076	      1.81762115	      4.57293465	    -21.30653593	      0.00000000	     19.54704818	     14.20828174	      0.03907344	     36.03442871	      0.62891943	     23.78645525	      5.58805538	      0.00000000
     15.02666667	    -11.85111385	     10.56754348	      4.21792245	      2.11861655	      0.97428215	      1.02541404	     43.67832236	     -5.54354480	     10.50725464	    102.48133558	      1.78863673	      5.19508818	    -21.95266628	      0.00000000	     15.85452007	     13.44690799	      1.19711053	     33.79880674	      0.58990046	     22.32543758	      4.98380979	      0.00000000
     15.03333333	    -11.42780092	      9.64655689	      4.19538512	      2.11971090	      0.97934520	      1.02595685	     44.08818783	     -4.69593532	      9.66165319	    100.78915290	      1.75910257	      5.82768536	    -22.34526694	      0.00000000	     13.50548324	     12.39053806	      1.71795934	     32.13865740	      0.56092539	     21.34512561	      5.33305305	      0.00000000
     15.04000000	    -11.19524012	      8.93505716	      3.94814473	      2.12070325	      0.98408736	      1.02676716	     44.71996665	     -3.86690690	      9.16741797	     99.00149261	      1.72790201	      6.43150550	    -22.72058246	      0.00000000	     11.38765404	     11.51607519	      1.92925663	     30.38755387	      0.53036287	     19.99545276	      5.42329427	      0.00000000
     15.04666667	    -10.77227672	      8.00142611	      3.82153991	      2.12198884	      0.98935130	      1.02735300	     44.94695888	     -3.01099107	      8.32955775	     96.91252435	      1.69144264	      7.03426575	    -23.02723655	      0.00000000	      9.11051209	     10.40867733	      2.19224109	     28.68528961	      0.50065275	     18.46963632	      5.54025779	      0.00000000
     15.05333333	    -10.43806491	      7.14994713	      3.59268339	      2.12328385	      0.99443309	      1.02802777	     45.21034257	     -2.16726553	      7.63646094	     94.68105377	      1.65249613	      7.60262726	    -23.37573353	      0.00000000	      6.97882890	      9.37739516	      2.24844710	     26.99699212	      0.47118640	     16.65061203	      5.53103007	      0.00000000
     15.06000000	    -10.39389067	      6.47089934	      3.18519588	      2.12436115	      0.99889863	      1.02890370	     45.79117426	     -1.33896809	      7.23119744	     92.38572367	      1.61243506	      8.13040207	    -23.64683172	      0.00000000	      5.27017288	      8.51978873	      1.93514694	     25.43091473	      0.44385319	     14.65478542	      5.47416430	      0.00000000
     15.06666667	     -9.81758481	      5.45960427	      3.06150676	      2.12605339	      1.00439642	      1.02925500	     45.48636272	     -0.53852669	      6.25813197	     89.70579728	      1.56566152	      8.68068675	    -24.02161603	      0.00000000	      2.96540292	      7.35324285	      2.03945630	     23.82603087	      0.41584269	     12.47679795	      5.24777286	      0.00000000
     15.07333333	     -9.56049916	      4.67016320	      2.78655174	      2.12747350	      1.00914142	      1.02977891	     45.53543372	      0.18175097	      5.58848804	     86.99242329	      1.51830421	      9.19025232	    -24.35453851	      0.00000000	      1.13157667	      6.42450192	      1.80996855	     22.39452400	      0.39085818	     10.17029068	      4.99344839	      0.00000000
     15.08000000	     -9.37354215	      3.95749858	      2.51745280	      2.12889029	      1.01363952	      1.03023051	     45.56559553	      0.81183918	      4.96660507	     84.15717891	      1.46881986	      9.69236834	    -24.71427149	      0.00000000	     -0.54410948	      5.60679279	      1.56402466	     21.07648253	      0.36785401	      7.74959354	      4.63277782	      0.00000000
     15.08666667	    -10.10868832	      3.70018523	      2.27689738	      2.12973257	      1.01628879	      1.03058070	     46.68354574	      0.99684918	      4.66927256	     81.48932587	      1.42225704	     10.36322554	    -24.77347888	      0.00000000	     -0.89474399	      5.28544828	      0.96255725	     20.38960359	      0.35586572	      5.63247970	      4.81900185	      0.00000000
     15.09333333	     -9.52590154	      3.10507664	      1.70132332	      2.13131657	      1.02098256	      1.03146696	     46.05571899	      1.77040196	      4.33717613	     78.32417587	      1.36701475	     10.56004327	    -25.35890778	      0.00000000	     -2.96742697	      4.61023506	      0.41957563	     19.02794763	      0.33210034	      2.78117286	      3.94529674	      0.00000000
     15.10000000	     -9.20136850	      2.46559935	      1.67785912	      2.13299309	      1.02529478	      1.03144224	     45.55117580	      2.03000124	      3.46924837	     75.04031259	      1.30970053	     11.07703249	    -25.52811557	      0.00000000	     -4.53503177	      3.92290413	      0.45950724	     18.09259956	      0.31577543	      0.25946403	      3.40034062	      0.00000000
     15.10666667	     -9.23297250	      2.18120559	      1.42806651	      2.13431063	      1.02858495	      1.03178772	     45.45649850	      2.20154100	      3.06049775	     71.82054271	      1.25350494	     11.54323174	    -25.62769555	      0.00000000	     -5.51648812	      3.58724976	     -0.02897725	     17.50708998	      0.30555636	     -2.22474194	      3.02823487	      0.00000000
